<?xml version="1.0" encoding="utf-8"?>
<!-- Generator: Adobe Illustrator 27.8.1, SVG Export Plug-In . SVG Version: 6.00 Build 0)  -->
<svg version="1.1" id="Capa_1" xmlns="http://www.w3.org/2000/svg" xmlns:xlink="http://www.w3.org/1999/xlink" x="0px" y="0px"
	 viewBox="0 0 129 43" style="enable-background:new 0 0 129 43;" xml:space="preserve">
<style type="text/css">
	.st0{fill:#FFFFFF;}
	.st1{fill-rule:evenodd;clip-rule:evenodd;fill:#EE7275;}
	.st2{fill-rule:evenodd;clip-rule:evenodd;fill:#FFFFFF;}
</style>
<path class="st0" d="M8.3,42c-0.3,0-0.7,0-1,0c-0.7,0-1.4-0.1-2-0.2c-0.6-0.1-1.2-0.3-1.8-0.6c-0.6-0.3-1.1-0.7-1.5-1.1
	c-0.5-0.4-0.8-1-1.1-1.5c-0.3-0.6-0.5-1.2-0.6-1.8C0.1,36.1,0,35.4,0,34.7c0-0.2,0-1,0-1V8.3c0,0,0-0.8,0-1C0,6.6,0.1,6,0.2,5.3
	C0.3,4.6,0.5,4,0.8,3.5c0.3-0.6,0.7-1.1,1.1-1.5c0.4-0.5,1-0.8,1.5-1.1C4,0.5,4.6,0.3,5.2,0.2C5.9,0.1,6.6,0,7.3,0l1,0h112.3l1,0
	c0.7,0,1.4,0.1,2,0.2c0.6,0.1,1.2,0.3,1.8,0.6c1.1,0.6,2.1,1.5,2.6,2.7c0.3,0.6,0.5,1.2,0.6,1.8c0.1,0.7,0.2,1.4,0.2,2.1
	c0,0.3,0,0.6,0,1c0,0.4,0,0.8,0,1.2v23c0,0.4,0,0.8,0,1.2c0,0.4,0,0.7,0,1c0,0.7-0.1,1.4-0.2,2c-0.1,0.6-0.3,1.3-0.6,1.8
	c-0.3,0.6-0.7,1.1-1.1,1.5c-0.4,0.5-1,0.8-1.5,1.1c-0.6,0.3-1.2,0.5-1.8,0.6c-0.7,0.1-1.4,0.2-2,0.2c-0.3,0-0.7,0-1,0l-1.2,0L8.3,42
	z"/>
<g>
	<g>
		<path class="st1" d="M91.6,5.5h21.5c3,0,5.4,2.4,5.4,5.4v21.5c0,3-2.4,5.4-5.4,5.4H91.6c-3,0-5.4-2.4-5.4-5.4V10.8
			C86.3,7.9,88.7,5.5,91.6,5.5L91.6,5.5z"/>
	</g>
	<g>
		<path class="st2" d="M109.9,21.6c0-4.1-3.4-7.5-7.5-7.5c-4.1,0-7.5,3.4-7.5,7.5c0,4.1,3.4,7.5,7.5,7.5
			C106.5,29.1,109.9,25.7,109.9,21.6L109.9,21.6z M109.7,13.1c-0.7,0-1.2,0.5-1.2,1.2c0,0.7,0.5,1.2,1.2,1.2c0.7,0,1.2-0.5,1.2-1.2
			C110.9,13.6,110.4,13.1,109.7,13.1L109.7,13.1z M96.3,11.3h12.3c2.3,0,4.1,1.9,4.1,4.1v12.3c0,2.3-1.8,4.1-4.1,4.1H96.3
			c-2.3,0-4.1-1.8-4.1-4.1V15.5C92.1,13.2,94,11.3,96.3,11.3L96.3,11.3z M108.5,10H96.3c-3,0-5.5,2.5-5.5,5.5v12.3
			c0,3,2.5,5.5,5.5,5.5h12.3c3,0,5.5-2.5,5.5-5.5V15.5C114,12.4,111.5,10,108.5,10L108.5,10z M96.4,21.6c0-3.3,2.7-5.9,5.9-5.9
			c3.3,0,5.9,2.7,5.9,5.9c0,3.3-2.7,5.9-5.9,5.9C99.1,27.5,96.4,24.9,96.4,21.6L96.4,21.6z"/>
	</g>
</g>
<g>
	<path d="M43.2,1.5C43,1.6,43,2.6,43.3,3.4c0,0.2,0.1,0.3,0.1,0.3c0,0-0.7-0.1-1-0.1c-0.6-0.2-1.1-0.5-1.6-1
		c-0.2-0.2-0.4-0.5-0.5-0.6c-0.2-0.3-0.3-0.4-0.4-0.3c0,0-0.2,0.3-0.3,0.6c-0.4,1-0.5,2-0.4,2.6c0,0.2,0,0.3,0,0.3
		c0,0-0.1-0.1-0.2-0.3c-0.1-0.1-0.2-0.2-0.2-0.2c-0.3,0-0.6,1.3-0.6,2.3c0,0.3,0,0.5,0,0.5S38,7.3,37.9,7.1
		c-0.2-0.2-0.3-0.4-0.4-0.4c0,0-0.1,0.1-0.1,0.1c-0.1,0.1-0.1,0.2-0.1,0.8c0,0.6,0,0.7,0.1,1.2c0.2,0.8,0.6,1.5,1.1,2.2
		c0.2,0.3,0.7,0.8,1,1l0.1,0.1l-0.1,0.5c-0.1,0.2-0.2,0.7-0.3,1c-0.2,0.5-0.2,0.6-0.2,1c0,0.3,0,0.5,0.1,0.7
		c0.4,1.2,0.5,1.3,0.4,2.3c-0.1,1.3-0.1,2,0.3,3.1c0.2,0.8,0.8,2,1.3,2.8c0.1,0.2,0.3,0.6,0.5,0.9c0.2,0.3,0.4,0.6,0.4,0.8l0.2,0.3
		l-0.3,0.2c-0.1,0.1-0.4,0.2-0.6,0.4c-0.6,0.3-1,0.6-1.2,0.9c-0.4,0.6-0.6,1-0.4,1.9c0.1,0.8,0.1,1.7,0,2.6c-0.1,0.5-0.1,0.8-0.1,1
		c0.1,0.6,0.1,0.5-0.5,0.7c-1.4,0.5-2.7,1.1-3.4,1.6c-0.7,0.5-1.4,1.2-1.9,2.1c-0.7,1.1-1.3,2.9-1.7,4.8l-0.1,0.3h6.6h6.6l0.2-0.1
		c0.2-0.1,0.2-0.1,0.3,0c0,0.1,0.1,0.1,0.1,0.1c0,0,0-0.1,0-0.1c-0.1-0.2-0.1-0.2,0.2-0.3c0.2-0.1,0.2-0.1,0.1,0.2
		c0,0.1-0.1,0.2-0.1,0.3c0,0,5.3,0,11.7,0h11.7v-0.1c0-0.2-0.2-1.3-0.3-2.1c-0.4-2-1-3.3-2-4.6c-0.8-0.9-2.1-2-3.4-2.7
		c-0.8-0.4-1.9-0.9-2.2-0.9c-0.1,0-0.1,0-0.2-0.3c-0.1-0.4-0.3-1-0.8-1.8c-0.7-1.4-0.8-1.5-0.8-2.6c0-0.6-0.1-0.9-0.1-1.1
		c-0.2-0.6-0.9-1.3-1.9-1.8c-0.6-0.3-0.7-0.3-2-0.3l-1.1,0v-0.4c0-0.5,0.1-1.4,0.2-2.2c0-0.4,0.1-0.7,0.1-0.7s0.1-0.1,0.1-0.1
		c0.1,0,0.1-0.1,0.1-0.2c0-0.1,0-0.1-0.2-0.1c-0.4,0.1-0.6,0.1-1-0.4l-0.3-0.3l-0.1,0.1l-0.1,0.1l0.3,0.3c0.3,0.3,0.4,0.3,0.6,0.4
		c0.2,0.1,0.2,0.1,0.2,0.2c0,0.3-0.2,1.2-0.2,1.8c-0.1,1.2-0.1,2,0.1,4.4l0.1,1.1l-0.3,0.1c-0.3,0.1-0.9,0.2-2.2,0.3
		c-1.7,0.2-2.5,0.3-3.3,0.6c-0.4,0.1-1,0.4-1.2,0.6c-0.1,0.1-0.4,0.2-0.6,0.2c-0.4,0.1-0.4,0.1-0.6,0.1c-0.1,0-0.2-0.1-0.2-0.1
		c0,0-0.1-0.1-0.2-0.1c-0.1-0.1-0.2-0.1-0.3-0.2c-0.1,0-0.1,0-0.2-0.4c-0.1-0.5-0.2-0.8-0.3-1.2L45,27.5l0.4,0c0.3,0,0.5,0,0.7-0.1
		c0.3-0.1,1.9-0.9,2.9-1.4c0.3-0.2,0.8-0.4,1-0.6c2.3-1.3,2.9-1.7,3.1-1.9c0.1-0.2,0.3-0.8,0.3-1.5c0.1-0.5,0-0.7-0.1-0.7
		c-0.1,0-0.1,0.1-0.2,0.6c-0.1,0.5-0.1,1-0.2,1.3c-0.1,0.2-0.4,0.5-1.7,1.2c-0.5,0.3-1.1,0.6-1.3,0.7c-0.8,0.5-2.6,1.4-2.6,1.4
		c0,0,0-0.1-0.1-0.2c-0.1-0.3-0.2-0.5-0.2-0.5c0,0,0,0.2,0.1,0.3c0.1,0.2,0.1,0.3,0.1,0.4c0,0-0.3,0.2-0.7,0.4l-0.7,0.3l-0.6,0
		c-0.7,0-1.3-0.1-1.7-0.2c-0.3-0.1-0.7-0.3-0.7-0.4c0,0,0,0,0,0c0,0-0.2-0.1-0.3-0.5c-0.1-0.2-0.2-0.4-0.3-0.6
		c-0.2-0.3-0.2-0.4-0.2-0.6c0-0.1,0-0.3,0-0.2c0,0,0,0.1,0,0.2c0,0.3-0.1,0.2-0.1-0.1c0-0.3,0-0.3,0-0.1l0,0.2l-0.2-0.4
		c-0.1-0.2-0.3-0.5-0.4-0.6c-0.8-1.3-1.4-2.8-1.7-4c-0.1-0.6-0.1-1,0-2.1c0.1-0.9,0.1-1.4-0.2-2c-0.2-0.6-0.3-0.8-0.2-0.9
		c0,0,0.3-0.1,0.7,0c0.7,0,1,0.1,1.8,0.3c0.5,0.1,0.6,0.1,0.5-0.1c0-0.4-0.4-0.9-0.9-1.1c-0.5-0.3-1.5-0.4-1.8-0.3
		c-0.1,0-0.2,0.1-0.2,0.1c0,0,0-0.2,0.1-0.4c0.1-0.2,0.1-0.5,0.2-0.7c0.1-0.4,0.6-2,1-2.8C40.9,9.6,41,9.4,41,9.4c0,0,0.1,0,0.2-0.1
		c0.4-0.1,0.7,0,1.7,0.4c0.9,0.4,0.8,0.4,1.3,0.2c0.7-0.3,1.5-0.6,2.5-0.9c1.2-0.3,2.4-0.5,3.2-0.5h0.5l0.2,0.2
		c0.1,0.1,0.2,0.3,0.2,0.4c0.1,0.2,0.1,1.2,0.1,2.3l0,1l0.2,0.5c0.3,0.5,0.7,1.8,1.3,3.7c0.2,0.5,0.3,1,0.4,1c0,0,0.1,0,0.1,0
		c0.1-0.1,0.2-0.2,0.4-1c0.1-0.4,0.4-0.9,0.6-1.2c0.2-0.2,0.7-0.6,1-0.7c0.4-0.1,0.7,0,1,0.3c0.3,0.3,0.6,0.9,0.7,1.4
		c0.1,0.5-0.1,1.5-0.4,2.1c-0.2,0.5-0.7,1.1-1,1.3c-0.1,0.1-0.1,0.2-0.1,0.3c0,0.1,0.1,0,0.3-0.1c0.2-0.1,0.2-0.2,0.2-0.3
		c0-0.1,0-0.1,0.1-0.1c0.1,0,0.4-0.4,0.6-0.9c0.4-0.8,0.6-1.9,0.4-2.6c0-0.1,0-0.2,0-0.2c0.1,0,0.5-0.6,0.7-1
		c0.2-0.4,0.5-1.2,0.5-1.4c0-0.1,0-0.2-0.2-0.3L57.7,13l0.3-0.5c0.2-0.3,0.3-0.6,0.3-0.6c0.1-0.2,0.1-1,0.1-1.7V9.6l0.1,0
		c0.1,0,0.2-0.1,0.2-0.2c0-0.4-0.3-1.1-0.6-1.6c-0.2-0.3-0.6-0.7-0.9-0.9l-0.1-0.1l0.2-0.4c0.2-0.4,0.2-0.6,0.1-0.6
		c-0.1,0-0.3,0.1-0.5,0.2c-0.2,0.1-0.5,0.2-0.5,0.2c0,0,0-0.1,0-0.3c0-0.6-0.2-1.1-0.5-1.5c-0.1-0.2-0.1-0.2-0.2-0.1
		c0,0-0.1,0.2-0.1,0.4c-0.1,0.6-0.1,0.6-0.3,0.1c-0.3-0.5-0.6-1-0.7-1c-0.1,0-0.1,0-0.2,0.1c-0.1,0.1-0.1,0.2,0,0.4
		c0,0.2,0,0.3,0,0.3s-0.1-0.1-0.3-0.2c-0.6-0.6-1.6-1.2-2.2-1.4c-0.2,0-0.5,0-1.7,0c-1,0-1.5,0-1.6,0c-0.3-0.1-1.1-0.4-1.5-0.7
		C47,2,46.8,1.9,46.7,1.9c-0.1,0-0.2,0.2-0.2,0.5c0,0.3,0,0.5,0.2,0.7c0.1,0.1,0.1,0.2,0.1,0.2c0,0-0.8-0.2-1.2-0.4
		c-0.8-0.3-1.4-0.7-1.9-1.2C43.4,1.5,43.3,1.5,43.2,1.5z M47.2,29.9c0,0.2-0.1,0.3-0.1,0.3c0,0-0.1-0.1-0.3-0.3l-0.3-0.3l0.3-0.1
		c0.2,0,0.3-0.1,0.3-0.1C47.2,29.6,47.2,29.7,47.2,29.9z M46.4,29.7c0,0,0,0.1-0.1,0.2L46,30.1l0-0.1c0-0.1,0-0.2,0-0.2
		c0-0.1,0-0.1,0.1-0.1C46.3,29.7,46.3,29.7,46.4,29.7z M46.8,30.1l0.3,0.3l-0.2,0.2c-0.1,0.1-0.2,0.2-0.2,0.1c0,0,0-0.1,0.1-0.1
		c0.1,0,0.1-0.1,0.1-0.2c0-0.2,0-0.2-0.4-0.2l-0.3,0l0.2-0.2c0.1-0.1,0.2-0.2,0.2-0.2C46.5,29.8,46.6,29.9,46.8,30.1z M46.2,30.5
		c0.1,0,0.1,0.1,0.1,0.1C46.2,30.7,46.1,30.6,46.2,30.5C46,30.5,46,30.4,46,30.3c0-0.1,0-0.1,0,0C46.1,30.5,46.1,30.5,46.2,30.5z
		 M47.1,30.7c0,0.1,0,0.3,0,0.3l0,0.1L46.9,31l-0.2-0.1l0.2-0.2c0.1-0.1,0.2-0.2,0.2-0.2C47.1,30.5,47.1,30.6,47.1,30.7z M46.1,30.9
		C46,31,46,31,45.9,31c0,0,0-0.2,0-0.2l0-0.2l0.1,0.1l0.1,0.1L46.1,30.9z M46.1,31.2c0,0.2,0,0.2-0.1,0.1c-0.1-0.1-0.1-0.1,0-0.2
		C46.2,31,46.2,31,46.1,31.2z M46.9,31.1c0.1,0.1,0.1,0.1,0,0.2c-0.2,0.1-0.2,0.1-0.2-0.1C46.7,31,46.7,30.9,46.9,31.1z M46.1,31.6
		c0,0.2-0.1,0.4-0.2,0.3c0,0,0-0.2,0-0.3c0-0.3,0-0.3,0.1-0.2C46.1,31.4,46.1,31.5,46.1,31.6z M47,31.4c0,0.1,0,0.2,0,0.3V32
		l-0.1-0.1c-0.2-0.2-0.2-0.3,0-0.4C47,31.3,47,31.3,47,31.4z M46.5,31.8C46.5,31.8,46.5,31.9,46.5,31.8c-0.1,0-0.2,0-0.2,0
		c0,0,0-0.1,0.1,0C46.4,31.7,46.5,31.8,46.5,31.8z M46.8,32.1c-0.1,0.1-0.2,0.2-0.3,0.3l-0.2,0.1l-0.2-0.2c-0.2-0.2-0.2-0.3,0-0.2
		c0.2,0.1,0.2,0.1,0.5,0c0.1,0,0.2-0.1,0.1-0.1c0-0.1,0-0.1,0,0C46.8,31.9,46.8,32,46.8,32.1z M46.9,32.8l0,0.3l-0.2-0.3l-0.2-0.3
		l0.3-0.3l0.3-0.3l0,0.3C46.9,32.4,46.9,32.7,46.9,32.8z M46.1,32.7C46,32.9,45.9,33,45.8,33c0,0,0-0.2,0-0.6l0-0.3l0.2,0.2l0.2,0.2
		L46.1,32.7z M46.6,32.9l0.2,0.3l-0.2,0.2l-0.2,0.2l-0.3-0.3L45.9,33l0.2-0.2c0.1-0.1,0.2-0.2,0.2-0.2
		C46.4,32.7,46.5,32.8,46.6,32.9z M46.1,33.4c0.1,0.1,0.2,0.2,0.2,0.3s-0.1,0.1-0.3,0.3l-0.3,0.2v-0.5c0-0.3,0-0.5,0-0.5
		S46,33.2,46.1,33.4z M46.9,33.6c0,0.2,0,0.3,0,0.3s-0.1-0.1-0.2-0.2l-0.2-0.2l0.2-0.2c0.1-0.1,0.2-0.2,0.2-0.2S46.9,33.4,46.9,33.6
		z M46.7,33.9c0.1,0.1,0.2,0.2,0.2,0.2c0,0-0.1,0.1-0.3,0.2l-0.3,0.2l-0.2-0.2l-0.2-0.2l0.2-0.2c0.1-0.1,0.3-0.2,0.3-0.2
		C46.4,33.7,46.5,33.8,46.7,33.9z M46.2,34.6c0,0-0.3,0.3-0.4,0.3c0,0,0-0.1,0-0.3v-0.3l0.2,0.2C46.1,34.5,46.2,34.6,46.2,34.6z
		 M46.8,34.8l0,0.2l-0.2-0.2l-0.2-0.2l0.2-0.2l0.2-0.2l0,0.2C46.8,34.5,46.8,34.7,46.8,34.8z M46.6,34.9c0.1,0.1,0.2,0.2,0.2,0.3
		s-0.1,0.1-0.2,0.2l-0.2,0.2l-0.3-0.3C46,35.1,45.9,35,45.9,35c0,0,0.4-0.3,0.4-0.3C46.3,34.7,46.5,34.8,46.6,34.9z M46.1,35.8
		c-0.1,0.1-0.2,0.2-0.2,0.2c0,0,0-0.2,0-0.4l0-0.4l0.2,0.2l0.2,0.2L46.1,35.8z M46.8,35.9l0,0.2l-0.2-0.3l-0.2-0.3l0.1-0.1
		c0.3-0.2,0.3-0.2,0.3,0C46.8,35.6,46.8,35.8,46.8,35.9z M46.6,36c0.1,0.1,0.2,0.2,0.2,0.3c0,0-0.1,0.1-0.2,0.2l-0.2,0.1l-0.2-0.3
		L45.9,36l0.2-0.2c0.1-0.1,0.2-0.2,0.2-0.2C46.4,35.7,46.5,35.8,46.6,36z M46.3,36.5c0,0.1,0,0.1-0.2,0.3L45.8,37l0-0.4
		c0-0.2,0-0.4,0-0.4C45.9,36.1,46.2,36.5,46.3,36.5z M46.8,36.7l0,0.3l-0.1-0.2c-0.1-0.1-0.1-0.2-0.1-0.2c0,0,0.3-0.3,0.3-0.3
		C46.8,36.3,46.8,36.5,46.8,36.7z M46.6,36.9c0.1,0.1,0.2,0.2,0.2,0.2c0,0-0.1,0.1-0.2,0.2l-0.2,0.1l-0.2-0.2L46,37l0.2-0.2
		c0.1-0.1,0.2-0.2,0.2-0.2S46.5,36.7,46.6,36.9z M46.1,37.3l0.2,0.2l-0.1,0.1c-0.3,0.2-0.3,0.2-0.3,0.1c0-0.2,0.1-0.6,0.1-0.6
		C45.9,37.1,46,37.2,46.1,37.3z M46.7,37.4c-0.1,0.4-0.1,0.4-0.2,0.2c-0.1-0.1-0.1-0.2-0.1-0.2c0,0,0.3-0.3,0.3-0.3
		C46.8,37.2,46.8,37.3,46.7,37.4z M46.6,37.9c0,0.1,0,0.1-0.2,0.3c-0.1,0.1-0.2,0.2-0.2,0.2c0,0-0.3-0.4-0.3-0.5
		c0,0,0.1-0.1,0.2-0.2l0.2-0.2l0.1,0.1C46.5,37.7,46.6,37.8,46.6,37.9z M51,37.6C51,37.6,51,37.6,51,37.6
		C50.9,37.7,50.9,37.7,51,37.6C51,37.6,51,37.5,51,37.6z M50.8,37.9c-0.1,0.1-0.2,0.3-0.4,0.5c-0.6,0.8-0.7,0.9-0.8,1
		c0,0,0.1,0,0.2-0.1c0.1-0.1,0.4-0.3,0.6-0.4c0.2-0.1,0.4-0.3,0.5-0.3c0.2-0.2,0.1,0-0.1,0.2c-0.4,0.5-1.3,1.5-1.5,1.6
		c-0.1,0.1-0.1,0.1,0.1-0.2c0.4-0.4,1.2-1.3,1.2-1.4c0,0-0.7,0.4-1,0.6c-0.2,0.1-0.3,0.2-0.3,0.2c0,0,0.3-0.5,0.9-1.2
		C50.9,37.7,51,37.6,50.8,37.9z M46,38.2c0.1,0.1,0.2,0.3,0.1,0.3c0,0.1-0.5,0.5-0.5,0.4c0,0,0.1-0.3,0.1-0.5c0-0.2,0.1-0.4,0.1-0.4
		S45.9,38.1,46,38.2z M46.6,38.6L46.5,39l-0.1-0.2l-0.1-0.2l0.2-0.2C46.6,38.1,46.7,38.1,46.6,38.6z M46.3,38.8l0.1,0.3l-0.3,0.2
		c-0.1,0.1-0.3,0.2-0.3,0.2c0,0,0-0.1-0.1-0.2c0-0.1-0.1-0.2-0.1-0.2c0,0,0.4-0.5,0.4-0.5C46.2,38.6,46.3,38.7,46.3,38.8z
		 M45.8,39.3l0.1,0.2l-0.2,0.2c-0.1,0.1-0.2,0.2-0.2,0.2c0,0,0.1-0.8,0.2-0.8C45.7,39.1,45.7,39.2,45.8,39.3z M46.4,39.5
		c0,0.2-0.1,0.4-0.1,0.6l-0.1,0.2L46.1,40L46,39.6l0.2-0.2c0.1-0.1,0.2-0.2,0.3-0.2C46.5,39.2,46.5,39.3,46.4,39.5z M46.1,40
		l0.1,0.3L46,40.5l-0.2,0.2l-0.1-0.3c-0.1-0.2-0.1-0.3-0.1-0.3c0,0,0.4-0.4,0.4-0.4C45.9,39.7,46,39.8,46.1,40z M45.7,40.7
		c0,0.1-0.4,0.3-0.4,0.3c0,0,0-0.2,0.1-0.4l0.1-0.4l0.1,0.3C45.6,40.5,45.7,40.6,45.7,40.7z M46.1,40.8C46.1,41,46,41.2,46,41.2
		c0,0-0.2-0.5-0.2-0.5c0.1-0.1,0.4-0.3,0.4-0.3C46.2,40.4,46.2,40.6,46.1,40.8z M45.8,41c0.1,0.1,0.1,0.2,0.1,0.3
		c-0.1,0.1-0.4,0.2-0.4,0.2c0,0-0.1-0.1-0.1-0.2l-0.1-0.2l0.2-0.1c0.1-0.1,0.2-0.1,0.2-0.1C45.7,40.8,45.8,40.9,45.8,41z M45.3,41.4
		c0,0.1,0.1,0.2,0.1,0.2c-0.2,0.1-0.4,0.3-0.4,0.2c0,0,0-0.2,0.1-0.4C45.2,41.1,45.2,41.1,45.3,41.4z"/>
	<path d="M47.5,13.2c-0.9,0.2-2.1,0.5-2.4,0.7C45,14,45,14,45,14.3c0,0.4,0.1,0.5,0.3,0.6c0.1,0,0.2,0,0.8-0.1
		c0.8-0.2,1.8-0.4,2.3-0.5c0.4,0,0.9,0,1.5,0.2c0.4,0.1,0.5,0.1,0.5-0.1c0-0.1-0.3-0.6-0.6-0.8C49.1,13.1,48.6,13,47.5,13.2z"/>
	<path d="M47.5,14.5c-0.2,0-0.5,0.1-0.7,0.2c-0.3,0.2-0.7,0.6-0.7,0.8c0,0.1,0.1,0.1,0.3-0.2c0.2-0.3,0.5-0.4,0.9-0.5l0.2-0.1
		L47.4,15c-0.3,0.5-0.4,0.9-0.4,1.5c0,0.4,0.1,0.8,0.2,1.1c0.2,0.4,0.2,0.4,0.1,0.3c-0.2-0.1-0.3-0.1-0.4-0.2
		c-0.2-0.1-0.3-0.1-0.3,0c0,0.1,0.3,0.3,0.6,0.4c0.2,0.1,0.4,0.1,0.6,0.1c0.4,0,0.4,0,0.7-0.1c0.5-0.2,0.9-0.8,1-1.4
		c0-0.1,0-0.4,0-0.6c0-0.3,0-0.4-0.2-0.7C49,14.7,48.3,14.4,47.5,14.5z"/>
	<path d="M41.2,15.3c-0.4,0.1-0.8,0.4-0.8,0.6c0,0.1,0.1,0.2,0.2,0.1c0.1-0.1,0.3-0.3,0.4-0.3l0.1,0l-0.1,0.2
		c-0.3,0.7-0.2,1.7,0.2,2.5c0.1,0.2,0.2,0.3,0.2,0.3c0,0-0.3,0-0.5-0.1c-0.1,0-0.2-0.1-0.3-0.2c-0.1-0.1-0.2-0.1-0.2,0
		c0,0.1,0.1,0.3,0.4,0.4c0.2,0.1,0.3,0.1,0.6,0.1c0.3,0,0.4,0,0.6-0.1c0.5-0.2,0.8-0.6,0.9-1.2c0.2-0.6,0-1.4-0.4-1.8
		c-0.1-0.1-0.2-0.2-0.4-0.3c-0.2-0.1-0.3-0.1-0.5-0.1C41.5,15.3,41.3,15.3,41.2,15.3z"/>
	<path d="M54.8,16c-0.2,0.1-0.6,0.5-0.7,0.7C54,17,54,17.1,54.3,17.5l0.1,0.2l-0.3,0.4c-0.2,0.3-0.3,0.4-0.2,0.4
		c0,0.1,0.1,0.1,0.1,0c0.2-0.1,0.6-0.7,0.6-0.8c0,0-0.1-0.2-0.2-0.4c-0.1-0.2-0.2-0.3-0.2-0.4c0-0.3,0.4-0.7,0.8-0.9
		c0.2-0.1,0.2-0.1,0.3,0c0.2,0.1,0.3,0.3,0.3,0.7c0,0.3,0,0.4,0.1,0.3c0.1-0.1,0-0.7-0.1-0.9C55.5,15.9,55.2,15.8,54.8,16z"/>
	<path d="M43.2,17.3c0,0,0,0.1,0,0.2c0,0.4-0.3,1.3-0.6,2c-0.2,0.4-0.2,0.4-0.1,0.6c0.1,0.2,0.4,0.5,0.7,0.6c0.4,0.2,1,0.1,1.3-0.1
		c0.1-0.1,0.1-0.1,0.1-0.2c-0.1-0.1-0.1-0.1-0.3,0c-0.5,0.2-1,0.1-1.4-0.3l-0.2-0.2l0.1-0.3c0.2-0.4,0.4-1,0.5-1.5
		C43.4,17.7,43.4,17.3,43.2,17.3C43.3,17.3,43.2,17.3,43.2,17.3z"/>
	<path d="M55.3,17.9c0,0.1-0.1,0.2-0.2,0.3c-0.1,0.2-0.2,0.2-0.1,0.2c0,0,0.1,0,0.2,0c0.2-0.1,0.4-0.4,0.4-0.5
		C55.5,17.7,55.4,17.8,55.3,17.9z"/>
	<path d="M48.3,18.5c-0.2,0.3-0.2,0.4-0.1,0.4c0.1,0,0.4-0.5,0.4-0.6C48.6,18.1,48.5,18.2,48.3,18.5z"/>
	<path d="M48.6,18.6c-0.2,0.3-0.3,0.4-0.2,0.5c0,0,0.1,0.1,0.1,0.1c0.1,0,0.4-0.6,0.4-0.6C48.9,18.3,48.8,18.4,48.6,18.6z"/>
	<path d="M41.4,19.1c-0.1,0.1-0.3,0.5-0.3,0.6c0,0.1,0.1,0.1,0.2,0.1c0.1,0,0.1,0,0.1,0c0,0,0.1,0.1,0.1,0.1c0.1,0,0.4-0.5,0.4-0.6
		c0-0.1-0.2-0.1-0.3,0.2c-0.2,0.3-0.2,0.3,0,0c0.1-0.3,0.2-0.4,0.1-0.4C41.5,19,41.5,19.1,41.4,19.1z"/>
	<path d="M48.7,20.7c-0.3,0.3-0.8,0.5-1.7,0.8c-1.3,0.5-2.2,0.6-3.3,0.7l-0.6,0L43,22c-0.1-0.1-0.2-0.1-0.2-0.1c0,0,0.1,0.2,0.3,0.4
		c0.5,0.6,0.5,0.7,0.5,1.1v0.4l0.2,0.2c0.3,0.3,0.5,0.3,1.2,0.3c0.9,0,2.1-0.3,2.5-0.5c0.4-0.2,0.8-0.7,0.8-1c0-0.1,0.1-0.2,0.2-0.4
		c0.1-0.1,0.2-0.4,0.2-0.5c0.1-0.3,0.3-1,0.4-1.2C49.1,20.4,48.9,20.5,48.7,20.7z M48.5,21.5c-0.1,0.6-0.2,0.8-0.6,1.1
		c-0.4,0.3-1.5,0.6-2.3,0.8c-0.2,0-0.3,0.1-0.3,0.1c-0.1,0.1,0.1,0.2,0.3,0.1c0.4,0,1.7-0.4,2.2-0.6c0.1-0.1,0.3-0.1,0.3-0.1
		c0.1,0-0.1,0.3-0.3,0.4c-0.3,0.3-0.8,0.5-1.8,0.7c-0.6,0.1-1.4,0.1-1.6,0c-0.1,0-0.3-0.1-0.3-0.2c-0.1-0.1-0.1-0.2-0.1-0.3
		c0-0.2,0-0.2,0.2-0.1c0.1,0.1,0.4,0.1,0.5,0c0-0.1,0-0.1-0.2-0.2c-0.2-0.1-0.4-0.2-0.6-0.5l-0.1-0.2l0.5,0c1-0.1,2-0.3,3.3-0.7
		c0.3-0.1,0.8-0.3,1-0.4c0.2-0.1,0.3-0.1,0.3-0.1C48.5,21.2,48.5,21.3,48.5,21.5z"/>
	<path d="M48.4,20.7C48.4,20.8,48.4,20.8,48.4,20.7C48.5,20.8,48.5,20.8,48.4,20.7C48.4,20.7,48.4,20.7,48.4,20.7
		C48.3,20.7,48.3,20.7,48.4,20.7z"/>
	<path d="M48,20.8C48,20.8,48,20.8,48,20.8C48.2,20.9,48.2,20.9,48,20.8C48,20.8,48,20.7,48,20.8z"/>
	<path d="M47.9,20.9c0,0,0.1,0.1,0.1,0.1C48,21,48,20.9,47.9,20.9C47.9,20.8,47.9,20.8,47.9,20.9C47.8,20.8,47.8,20.8,47.9,20.9z"/>
	<path d="M46.8,21.1c0.1,0.1,0.1,0.1,0.1,0.1C47,21.2,46.9,21.1,46.8,21.1l-0.1-0.1L46.8,21.1z"/>
	<path d="M47.2,21C47.2,21,47.2,21,47.2,21C47.3,21.1,47.3,21.1,47.2,21C47.2,21,47.2,20.9,47.2,21z"/>
	<path d="M46.7,21.2c0.1,0.1,0.2,0.2,0.2,0.2C46.9,21.4,46.8,21.2,46.7,21.2C46.6,21,46.6,21,46.7,21.2z"/>
	<path d="M47.2,21.2c0,0,0.1,0.1,0.1,0.1C47.3,21.2,47.2,21.2,47.2,21.2C47.1,21.1,47.1,21.1,47.2,21.2z"/>
	<path d="M46.3,21.2c0,0,0,0.1,0.1,0.1c0.1,0.1,0.1,0.1,0.1,0.1c0,0,0-0.1-0.1-0.1C46.4,21.2,46.3,21.2,46.3,21.2z"/>
	<path d="M46.3,21.4C46.4,21.4,46.4,21.4,46.3,21.4C46.4,21.4,46.4,21.4,46.3,21.4C46.3,21.3,46.3,21.3,46.3,21.4
		C46.2,21.3,46.3,21.3,46.3,21.4z"/>
	<path d="M45.9,21.4C45.9,21.4,46,21.5,45.9,21.4C46,21.5,46,21.4,45.9,21.4C45.9,21.3,45.8,21.3,45.9,21.4
		C45.8,21.3,45.8,21.3,45.9,21.4z"/>
	<path d="M45.5,21.4c0,0,0,0.1,0,0.1c0,0,0,0,0,0C45.6,21.5,45.5,21.4,45.5,21.4C45.5,21.4,45.5,21.3,45.5,21.4z"/>
	<path d="M44.8,21.7C44.8,21.8,44.8,21.8,44.8,21.7C44.8,21.7,44.8,21.7,44.8,21.7C44.8,21.5,44.8,21.6,44.8,21.7z"/>
	<path d="M45.1,21.7C45.1,21.7,45.1,21.8,45.1,21.7C45.2,21.7,45.2,21.6,45.1,21.7C45.1,21.5,45.1,21.6,45.1,21.7z"/>
	<path d="M51.6,21.5c0,0.1,0.1,0.2,0.1,0.2C51.7,21.7,51.7,21.6,51.6,21.5C51.6,21.5,51.6,21.5,51.6,21.5z"/>
	<path d="M44.7,21.8c0,0.1,0,0.2,0,0.1c0-0.1,0-0.2,0-0.2C44.7,21.6,44.7,21.7,44.7,21.8z"/>
	<path d="M44,21.8C44,21.9,44,21.9,44,21.8C44,21.8,44,21.8,44,21.8C44,21.7,44,21.7,44,21.8z"/>
	<path d="M44.1,21.8C44.1,21.8,44.1,21.8,44.1,21.8C44.1,21.8,44.1,21.7,44.1,21.8C44.1,21.7,44.1,21.7,44.1,21.8z"/>
	<path d="M44.4,21.8C44.4,21.9,44.4,21.9,44.4,21.8C44.4,21.8,44.4,21.8,44.4,21.8C44.4,21.7,44.4,21.8,44.4,21.8z"/>
	<path d="M43.6,21.9C43.6,21.9,43.6,22,43.6,21.9C43.6,21.9,43.6,21.8,43.6,21.9C43.6,21.8,43.6,21.8,43.6,21.9z"/>
	<path d="M43.4,21.9C43.4,21.9,43.5,22,43.4,21.9C43.5,21.9,43.5,21.9,43.4,21.9C43.4,21.8,43.4,21.8,43.4,21.9z"/>
	<path d="M51.9,21.9c0.2,0.6,0.3,1,0.3,1C52.2,22.8,51.9,21.9,51.9,21.9C51.9,21.8,51.9,21.9,51.9,21.9z"/>
	<path d="M52.7,22C52.7,22,52.7,22,52.7,22C52.7,22,52.7,21.9,52.7,22C52.7,21.9,52.7,21.9,52.7,22z"/>
	<path d="M53,22C53,22.1,53,22.1,53,22C53,22,53,22,53,22C53,22,53,22,53,22z"/>
	<path d="M52.7,22.2C52.7,22.2,52.7,22.3,52.7,22.2C52.8,22.2,52.8,22.2,52.7,22.2C52.7,22.1,52.7,22.2,52.7,22.2z"/>
	<path d="M53,22.2c0,0,0,0.1,0,0.2C53.1,22.5,53.1,22.4,53,22.2C53,22.1,53,22.1,53,22.2z"/>
	<path d="M51.8,22.4C51.8,22.4,51.8,22.4,51.8,22.4C51.9,22.4,51.9,22.3,51.8,22.4C51.8,22.3,51.8,22.3,51.8,22.4z"/>
	<path d="M52.8,22.4C52.8,22.5,52.8,22.5,52.8,22.4C52.8,22.4,52.8,22.4,52.8,22.4C52.8,22.3,52.8,22.4,52.8,22.4z"/>
	<path d="M51.9,22.5C51.9,22.6,51.9,22.6,51.9,22.5C51.9,22.5,51.9,22.5,51.9,22.5C51.9,22.5,51.9,22.5,51.9,22.5z"/>
	<path d="M51.9,22.7C51.9,22.8,51.9,22.8,51.9,22.7C51.9,22.7,51.9,22.7,51.9,22.7C51.9,22.6,51.9,22.7,51.9,22.7z"/>
	<path d="M52,22.9C52,22.9,52,23,52,22.9C52,22.9,52,22.8,52,22.9C52,22.8,51.9,22.8,52,22.9z"/>
	<path d="M49.6,23.5c0,0.1,0.2,0.6,0.2,0.6c0,0,0-0.2-0.1-0.3C49.7,23.6,49.6,23.5,49.6,23.5z"/>
	<path d="M49.5,23.8c0,0.1,0.1,0.4,0.1,0.3c0,0,0-0.1,0-0.2C49.6,23.8,49.5,23.8,49.5,23.8z"/>
	<path d="M48.8,24.2c0,0.1,0.3,1.2,0.3,1.1C49.1,25.2,48.9,24.2,48.8,24.2C48.8,24.2,48.8,24.2,48.8,24.2z"/>
	<path d="M48.1,24.9c0,0.1,0.2,0.8,0.2,0.8C48.3,25.7,48.1,25,48.1,24.9C48.1,24.9,48.1,24.9,48.1,24.9z"/>
	<path d="M48.3,25.1C48.3,25.1,48.3,25.1,48.3,25.1C48.4,25,48.4,25,48.3,25.1C48.3,25,48.3,25,48.3,25.1z"/>
	<path d="M47.9,25.2c0,0.2,0.2,0.7,0.2,0.7C48.2,25.9,48,25.2,47.9,25.2C47.9,25.1,47.9,25.1,47.9,25.2z"/>
	<path d="M42.6,25.4c0,0.1,0,0.2,0,0.1c0-0.1,0-0.2,0-0.3C42.6,25.2,42.6,25.2,42.6,25.4z"/>
	<path d="M47.7,25.2c0,0.1,0,0.1,0.1,0.2c0,0,0,0,0,0C47.8,25.3,47.7,25.2,47.7,25.2C47.7,25.2,47.7,25.2,47.7,25.2z"/>
	<path d="M48.4,25.2C48.4,25.3,48.4,25.3,48.4,25.2C48.4,25.2,48.4,25.2,48.4,25.2C48.4,25.2,48.4,25.2,48.4,25.2z"/>
	<path d="M43,25.7C43,25.7,43,25.8,43,25.7C43,25.7,43,25.6,43,25.7C43,25.5,43,25.6,43,25.7z"/>
	<path d="M43,26.1C43,26.2,43,26.2,43,26.1C43,26.1,43,26,43,26.1C43,25.9,43,26,43,26.1z"/>
	<path d="M43.9,26.4c0,0.3,0,0.4,0,0.2c0-0.1,0-0.3,0-0.5C43.9,26,43.9,26.1,43.9,26.4z"/>
	<path d="M43.5,26.3c0,0.2,0,0.3,0,0.2c0-0.1,0-0.3,0-0.3C43.5,26.1,43.5,26.2,43.5,26.3z"/>
	<path d="M43.8,26.1c0,0.1,0,0.2,0,0.4l0,0.3l0-0.3C43.8,26.4,43.8,26.2,43.8,26.1l0-0.1L43.8,26.1z"/>
	<path d="M43.3,26.3C43.3,26.4,43.3,26.4,43.3,26.3C43.3,26.3,43.3,26.2,43.3,26.3C43.3,26.2,43.3,26.2,43.3,26.3z"/>
	<path d="M44.2,26.6c0,0.2,0,0.4,0,0.4c0,0,0-0.6,0-0.7C44.2,26.3,44.2,26.4,44.2,26.6z"/>
	<path d="M45,26.4c0,0.1,0,0.3,0,0.4c0,0.2,0,0.2,0-0.1c0-0.2,0-0.3,0-0.4C45,26.3,44.9,26.3,45,26.4z"/>
	<path d="M45.6,26.4c0,0.1,0.1,0.2,0.1,0.2c0,0,0-0.3-0.1-0.3C45.6,26.3,45.6,26.3,45.6,26.4z"/>
	<path d="M46.1,26.3c0,0,0,0.1,0.1,0.2c0,0.1,0.1,0.1,0.1,0.1C46.2,26.5,46.1,26.2,46.1,26.3z"/>
	<path d="M46.3,26.4c0,0.1,0.1,0.3,0.2,0.3c0,0,0-0.1-0.1-0.2C46.4,26.3,46.3,26.2,46.3,26.4z"/>
	<path d="M44.1,26.5c0,0.1,0,0.2,0,0.1c0-0.1,0-0.2,0-0.2C44.1,26.4,44.1,26.4,44.1,26.5z"/>
	<path d="M45.1,26.6C45.1,26.7,45.1,26.7,45.1,26.6C45.2,26.6,45.2,26.5,45.1,26.6C45.1,26.4,45.1,26.5,45.1,26.6z"/>
	<path d="M44.6,26.7C44.6,26.8,44.6,26.8,44.6,26.7C44.6,26.7,44.6,26.7,44.6,26.7C44.6,26.6,44.6,26.7,44.6,26.7z"/>
	<path d="M45.7,26.7C45.7,26.8,45.7,26.8,45.7,26.7C45.7,26.7,45.7,26.7,45.7,26.7C45.7,26.7,45.7,26.7,45.7,26.7z"/>
	<path d="M44.2,26.9C44.2,27,44.2,27,44.2,26.9C44.2,26.9,44.2,26.9,44.2,26.9C44.2,26.8,44.2,26.9,44.2,26.9z"/>
</g>
</svg>
