<?xml version="1.0" encoding="utf-8"?>
<!-- Generator: Adobe Illustrator 27.8.1, SVG Export Plug-In . SVG Version: 6.00 Build 0)  -->
<svg version="1.1" id="Capa_1" xmlns="http://www.w3.org/2000/svg" xmlns:xlink="http://www.w3.org/1999/xlink" x="0px" y="0px"
	 viewBox="0 0 48 48" style="enable-background:new 0 0 48 48;" xml:space="preserve">
<style type="text/css">
	.st0{fill:#F3955E;}
	.st1{fill:none;stroke:#18193F;stroke-width:3;stroke-linecap:round;stroke-linejoin:round;stroke-miterlimit:10;}
	.st2{fill:#18193F;}
</style>
<path class="st0" d="M40.9,11.1H15.1c-1.1,0-2,1-1.9,2.1l2.2,27.9c0.1,0.8,0.6,1.4,1.3,1.7l10.7,3.8c0.4,0.2,0.9,0.2,1.3,0l10.7-3.8
	c0.7-0.3,1.2-0.9,1.3-1.7l2.2-27.9C42.9,12.1,42,11.1,40.9,11.1z"/>
<path class="st1" d="M37.8,28.1l1.5-19.5c0.1-1.2-0.8-2.2-2-2.2H10.7c-1.2,0-2.1,1-2,2.2l0.6,7.1"/>
<path class="st1" d="M9.8,22.4L11,37.6c0.1,0.8,0.6,1.5,1.3,1.7l11,4c0.4,0.2,0.9,0.2,1.3,0l11-4c0.7-0.3,1.3-0.9,1.3-1.7l0.3-3.6"
	/>
<path class="st2" d="M31.4,16H18.2l0.4,6h12.8c0.6,0,1,0.5,1,1.1l-0.7,9.9c0,0.4-0.3,0.8-0.7,0.9L24.3,36c-0.2,0.1-0.4,0.1-0.6,0
	l-6.5-2.2c-0.4-0.1-0.7-0.5-0.7-0.9l-0.2-3.3c-0.1-0.9,0.6-1.6,1.5-1.6l0,0c0.8,0,1.4,0.6,1.5,1.4l0.1,2l4.6,1.5l4.8-1.5l0.5-6.4
	H16.8c-0.5,0-1-0.4-1-0.9l-0.8-10c0-0.6,0.4-1.1,1-1.1h15.3c0.9,0,1.6,0.7,1.5,1.6l0,0C32.8,15.4,32.2,16,31.4,16z"/>
</svg>
